<svg width="900" height="900" viewBox="0 0 900 900" fill="none" xmlns="http://www.w3.org/2000/svg">
  <rect width="900" height="900" rx="36" fill="#F8F7F8"/>
  <g transform="translate(80 140) rotate(-10 320 260)">
    <rect x="0" y="0" width="640" height="420" rx="30" fill="#FFFDFE" stroke="#E0E1EA" stroke-width="6"/>
    <g stroke="#9C9CA5" stroke-width="2" opacity=".9">
      <path d="M28 68C70 44 136 42 178 68C218 94 286 94 328 68C370 42 438 42 480 68C520 92 584 94 616 82"/>
      <path d="M22 126C72 96 136 96 184 126C234 156 298 156 346 126C394 96 456 96 504 126C554 156 610 156 638 146"/>
    </g>
    <g fill="#fff" stroke="#D5D8E7" stroke-width="2">
      <rect x="24" y="54" width="98" height="72" rx="12"/>
      <rect x="130" y="54" width="80" height="72" rx="12"/>
      <rect x="218" y="54" width="80" height="72" rx="12"/>
      <rect x="306" y="54" width="80" height="72" rx="12"/>
      <rect x="394" y="54" width="80" height="72" rx="12"/>
      <rect x="482" y="54" width="80" height="72" rx="12"/>
      <rect x="570" y="54" width="46" height="72" rx="12"/>
      <rect x="46" y="134" width="98" height="72" rx="12"/>
      <rect x="152" y="134" width="80" height="72" rx="12"/>
      <rect x="240" y="134" width="80" height="72" rx="12"/>
      <rect x="328" y="134" width="80" height="72" rx="12"/>
      <rect x="416" y="134" width="80" height="72" rx="12"/>
      <rect x="504" y="134" width="80" height="72" rx="12"/>
      <rect x="92" y="214" width="100" height="72" rx="12"/>
      <rect x="200" y="214" width="80" height="72" rx="12"/>
      <rect x="288" y="214" width="80" height="72" rx="12"/>
      <rect x="376" y="214" width="80" height="72" rx="12"/>
      <rect x="464" y="214" width="124" height="72" rx="12"/>
      <rect x="24" y="294" width="98" height="72" rx="12" fill="#8DEBFF"/>
      <rect x="130" y="294" width="98" height="72" rx="12" fill="#8DEBFF"/>
      <rect x="236" y="294" width="238" height="72" rx="12" fill="#FF76C8"/>
      <rect x="482" y="294" width="134" height="72" rx="12" fill="#8DEBFF"/>
    </g>
  </g>
</svg>
